# xmcd
#
# Track frame offsets:
#	150
#	13505
#	26645
#	42802
#	54005
#	78030
#	92137
#	105945
#	118797
#	132132
#	143440
#	156880
#	170150
#	181582
#	196985
#	209205
#	221855
#	233220
#	246720
#	259297
#
# Disc length: 3627 seconds
#
# Revision: 1
# Processed by: cddbd v1.5.1PL0 Copyright (c) Steve Scherf et al.
# Submitted via: audiograbber 1.82.02
#
DISCID=140e2914
DTITLE=Various Artist - Sounds of The Century Set Vol 1 CD 3 Of 4
DYEAR=1900
DGENRE=Country
TTITLE0=Lester Sisters - Cuanto Le Gusta
TTITLE1=Edwin Duff - Unless
TTITLE2=Bob Gibson - St Louis Blues March
TTITLE3=June Hamillton - Bake A Cake
TTITLE4=Les Welch - Sat Night Fish Fry Pts 1 n 2
TTITLE5=Larry Steller - Lover's Gold
TTITLE6=Maggy Fitzgibbon - I taut  Itaw a Puddy Tat
TTITLE7=Ross Higgins - Many Times
TTITLE8=Wally Carr - Bewitched
TTITLE9=Les Welch - Mule Train
TTITLE10=Betty Parker - Do You Remember Versailles
TTITLE11=Jimmy Parkinson - Granada
TTITLE12=Vic Sabrino - Rock Around The Clock
TTITLE13=Ray Dicksen - Shifting Wispering Sounds
TTITLE14=Glenn Marks - Anna
TTITLE15=Jim Vickers - Oh Johnny
TTITLE16=Les Welch - Pacific Boogie Woogie
TTITLE17=Jimmy Parkinson - All My Love
TTITLE18=Ray Dickson - Snowy River Roll
TTITLE19=Les Welch - I've Got A Lovely Bunch Of Coconuts
EXTD=
EXTT0=
EXTT1=
EXTT2=
EXTT3=
EXTT4=
EXTT5=
EXTT6=
EXTT7=
EXTT8=
EXTT9=
EXTT10=
EXTT11=
EXTT12=
EXTT13=
EXTT14=
EXTT15=
EXTT16=
EXTT17=
EXTT18=
EXTT19=
PLAYORDER=
